<?xml version="1.0" standalone="no"?>
<!DOCTYPE svg PUBLIC "-//W3C//DTD SVG 20010904//EN"
 "http://www.w3.org/TR/2001/REC-SVG-20010904/DTD/svg10.dtd">
<svg version="1.0" xmlns="http://www.w3.org/2000/svg"
 width="224.000000pt" height="225.000000pt" viewBox="0 0 224.000000 225.000000"
 preserveAspectRatio="xMidYMid meet">

<g transform="translate(0.000000,225.000000) scale(0.100000,-0.100000)"
fill="#000000" stroke="none">
<path d="M980 2235 c-214 -36 -433 -128 -570 -240 -61 -50 -180 -176 -180
-190 0 -9 -62 -98 -78 -110 -28 -23 -112 -286 -137 -430 -19 -108 -15 -203 10
-309 8 -33 12 -63 10 -66 -2 -4 5 -30 15 -59 11 -28 20 -58 20 -67 0 -24 72
-173 113 -234 60 -88 229 -262 306 -314 91 -61 212 -117 326 -151 50 -15 104
-33 121 -41 23 -10 40 -11 69 -3 30 9 49 7 92 -6 50 -16 59 -16 121 -2 37 9
113 25 169 37 131 27 224 65 332 137 159 106 332 308 403 471 15 35 34 73 43
85 8 12 15 33 15 48 0 14 9 52 21 85 48 136 46 358 -6 552 -30 110 -118 294
-164 342 -18 19 -42 54 -52 77 -10 23 -27 47 -38 53 -12 6 -54 40 -94 76 -39
36 -97 82 -127 102 -70 46 -235 116 -336 142 -106 27 -292 34 -404 15z m342
-59 c12 -9 41 -16 65 -16 23 0 44 -4 47 -9 3 -5 23 -12 43 -16 122 -22 394
-222 482 -354 20 -29 44 -65 53 -80 10 -14 18 -40 18 -58 0 -21 10 -44 30 -66
19 -22 38 -63 53 -118 41 -140 50 -224 44 -396 -6 -181 -28 -280 -71 -319 -14
-14 -28 -41 -32 -61 -12 -68 -94 -202 -178 -291 -98 -103 -262 -209 -389 -252
-285 -97 -672 -48 -942 119 -90 56 -140 101 -218 198 -192 239 -296 585 -252
838 33 189 76 293 182 434 30 40 67 80 82 88 14 9 38 33 53 54 38 53 183 159
293 213 104 51 232 93 325 106 99 14 284 5 312 -14z"/>
<path d="M1136 2098 c-3 -13 -6 -44 -6 -70 0 -41 3 -48 20 -48 11 0 20 5 20
10 0 6 -7 10 -15 10 -15 0 -13 33 5 93 7 20 6 27 -4 27 -8 0 -16 -10 -20 -22z"/>
<path d="M736 2005 c-20 -15 -20 -16 3 -63 13 -26 26 -42 28 -35 2 7 0 21 -6
32 -16 29 -14 61 5 61 8 0 12 5 9 10 -8 13 -16 12 -39 -5z"/>
<path d="M1505 1985 c-37 -36 -28 -86 15 -85 13 1 12 3 -2 14 -30 22 -22 44
13 42 37 -1 64 28 39 44 -24 15 -39 12 -65 -15z m55 -5 c0 -5 -7 -10 -15 -10
-8 0 -15 5 -15 10 0 6 7 10 15 10 8 0 15 -4 15 -10z"/>
<path d="M1022 1884 c-6 -10 -24 -18 -50 -20 -23 -1 -45 -5 -49 -7 -4 -3 -25
-8 -46 -11 -21 -3 -48 -11 -60 -18 -20 -10 -21 -10 -7 7 31 37 -165 -74 -206
-117 -59 -62 -107 -134 -99 -148 4 -7 -1 -14 -14 -17 -25 -6 -46 -37 -55 -81
-4 -17 -12 -32 -16 -32 -23 0 -31 -53 -36 -223 -7 -196 5 -325 31 -340 8 -4
15 -14 15 -21 0 -6 17 -48 39 -92 35 -73 47 -86 145 -168 209 -172 288 -201
575 -212 86 -3 113 0 160 17 31 12 74 28 95 36 22 8 53 23 69 35 16 11 41 20
55 20 18 0 40 13 65 39 20 21 46 41 57 44 20 6 35 38 26 54 -3 5 6 16 20 25
21 14 24 23 20 51 -4 26 -1 37 12 44 9 6 14 11 9 11 -4 0 0 14 8 31 9 17 19
29 22 26 2 -3 -1 -15 -7 -27 -9 -16 -9 -25 -1 -33 8 -8 11 -4 12 13 1 14 4 41
6 60 2 19 5 43 6 53 1 9 5 17 9 17 5 0 13 11 18 25 6 14 15 37 22 53 13 30 12
85 -3 187 -18 119 -62 289 -79 305 -8 8 -34 47 -57 85 -48 81 -191 238 -234
255 -16 7 -29 19 -29 26 0 8 -6 14 -12 14 -100 3 -240 24 -263 40 -5 4 -44 8
-87 9 -63 2 -78 -1 -86 -15z m243 -91 c33 -8 87 -28 120 -43 73 -35 188 -127
179 -142 -4 -6 -3 -8 3 -5 5 3 20 -8 33 -25 l23 -32 -31 23 c-18 12 -32 18
-32 12 0 -5 8 -14 17 -19 18 -11 25 -51 12 -68 -5 -6 -13 -44 -19 -85 -17
-122 -20 -132 -36 -118 -8 6 -14 17 -14 25 0 7 -9 16 -20 19 -11 3 -23 17 -26
31 -3 13 -13 24 -21 24 -8 0 -19 13 -24 29 -6 17 -26 39 -45 50 -51 30 -46 57
12 66 57 8 74 14 74 27 0 5 -4 7 -10 3 -5 -3 -32 -8 -61 -11 -28 -3 -71 -12
-94 -19 -47 -14 -69 -7 -59 18 5 13 0 17 -19 17 -14 0 -29 -4 -32 -10 -3 -5
-19 -10 -35 -10 -16 0 -32 5 -35 10 -7 11 -48 14 -59 3 -8 -9 -33 -15 -70 -17
-16 0 -32 -8 -34 -16 -8 -23 -51 -60 -57 -49 -11 17 -32 9 -43 -16 -6 -14 -18
-25 -27 -25 -8 0 -15 -7 -15 -15 0 -8 -5 -15 -11 -15 -13 0 -49 -38 -49 -52 0
-4 -10 -8 -21 -8 -12 0 -28 -8 -35 -17 -12 -17 -13 -17 -19 0 -4 9 -11 17 -17
17 -5 0 -6 -5 -2 -12 4 -7 3 -8 -4 -4 -9 5 -9 13 -1 27 5 11 7 30 3 42 -5 12
-7 27 -6 34 2 6 -2 14 -8 18 -5 3 -10 26 -10 51 0 32 -3 43 -12 38 -6 -4 -8
-3 -5 4 4 5 4 17 1 26 -5 14 -9 14 -23 4 -14 -12 -15 -11 -2 7 39 54 121 129
166 152 144 74 341 96 500 56z m-560 -23 c-3 -5 -12 -10 -18 -10 -7 0 -6 4 3
10 19 12 23 12 15 0z m599 -344 c60 -36 97 -79 106 -124 l7 -40 -31 19 c-33
20 -71 25 -80 10 -9 -14 13 -64 36 -82 19 -15 19 -16 1 -14 -10 0 -24 4 -31 9
-6 4 -17 4 -22 1 -6 -4 -18 -1 -26 6 -11 9 -20 9 -41 0 -25 -11 -25 -12 -7
-26 10 -7 15 -17 11 -21 -4 -5 7 -16 25 -27 18 -10 24 -15 13 -11 -11 4 -41 9
-67 12 -26 2 -52 10 -59 18 -10 13 -14 12 -30 -2 -18 -16 -27 -66 -11 -62 11
3 155 -72 149 -78 -3 -3 -22 2 -43 11 -36 15 -39 15 -52 -2 -11 -16 -9 -21 15
-41 15 -12 34 -27 41 -33 7 -6 21 -8 30 -4 16 6 16 5 0 -11 -17 -17 -20 -17
-53 -1 -20 9 -48 17 -64 17 -15 0 -38 9 -51 20 -13 11 -27 20 -31 20 -5 0 -13
9 -20 21 -16 32 3 45 35 24 26 -17 26 -17 26 11 -1 27 -2 28 -14 11 -10 -13
-16 -15 -21 -6 -4 6 -2 15 5 19 8 5 9 10 1 14 -6 4 -9 26 -6 52 2 30 0 42 -7
38 -7 -5 -9 2 -4 19 3 14 2 29 -4 32 -17 10 -11 31 19 69 17 21 37 60 47 88
12 39 23 53 48 64 41 19 108 10 160 -20z m81 -196 c3 -5 2 -10 -4 -10 -5 0
-13 5 -16 10 -3 6 -2 10 4 10 5 0 13 -4 16 -10z m9 -121 c0 -64 -46 -28 -60
48 l-5 25 33 -19 c27 -16 33 -25 32 -54z m-546 25 c7 4 12 2 12 -3 0 -6 -6
-11 -13 -11 -15 0 -37 20 -37 34 0 5 6 2 13 -9 8 -10 19 -15 25 -11z m375 -27
c41 -18 58 -38 51 -63 -5 -20 -7 -20 -34 8 -21 20 -38 28 -64 28 -38 0 -44 8
-24 28 15 15 31 15 71 -1z m104 -19 c-3 -7 -5 -2 -5 12 0 14 2 19 5 13 2 -7 2
-19 0 -25z m-55 -120 c-7 -7 -12 -8 -12 -2 0 14 12 26 19 19 2 -3 -1 -11 -7
-17z m-28 -250 c-9 -18 -25 -43 -34 -55 -15 -19 -20 -20 -29 -9 -9 10 -2 23
31 57 24 24 44 43 46 42 2 0 -4 -16 -14 -35z m226 -157 c0 -10 -6 -21 -13 -24
-10 -4 -13 2 -9 19 5 28 22 32 22 5z"/>
<path d="M1124 1356 c-22 -19 -25 -25 -12 -26 9 0 20 5 23 10 11 17 65 12 65
-6 0 -12 -6 -15 -21 -11 -28 8 -79 -3 -79 -15 0 -6 10 -8 23 -5 12 3 33 -1 47
-9 23 -14 13 -13 -25 2 -26 11 -16 -12 10 -24 31 -14 74 -15 95 -3 17 11 19
76 3 92 -6 6 -31 13 -55 16 -37 4 -49 1 -74 -21z"/>
<path d="M1132 1209 c-13 -5 -28 -7 -33 -3 -5 3 -8 -6 -7 -20 1 -15 4 -26 5
-26 2 0 24 13 51 30 46 29 37 41 -16 19z"/>
<path d="M1768 1758 c-6 -55 -28 -83 -60 -74 -21 5 -24 -12 -4 -20 21 -8 78
22 116 61 40 42 32 60 -9 21 l-29 -28 5 46 c4 28 2 46 -4 46 -6 0 -13 -23 -15
-52z"/>
<path d="M419 1764 c-12 -15 -10 -16 18 -10 49 11 98 -22 57 -38 -23 -9 -37 3
-23 20 9 11 8 14 -5 14 -21 0 -22 -48 -1 -56 19 -8 65 22 65 41 0 37 -85 60
-111 29z"/>
<path d="M1930 1615 c-7 -8 -20 -15 -28 -15 -12 0 -13 -3 -5 -11 14 -14 53 5
53 26 0 19 -4 19 -20 0z"/>
<path d="M230 1497 c0 -9 5 -19 10 -22 17 -10 11 -25 -10 -25 -11 0 -20 -4
-20 -9 0 -16 68 -83 74 -73 3 5 -6 22 -19 36 -30 33 -31 36 -5 36 18 0 19 3
10 21 -16 28 -8 33 34 19 20 -6 42 -10 49 -7 15 6 -32 25 -84 33 -31 5 -39 4
-39 -9z"/>
<path d="M1964 1437 c-2 -7 -3 -24 -2 -37 2 -17 -3 -25 -16 -28 -17 -4 -18 0
-13 32 7 41 -9 49 -19 9 -9 -34 7 -58 37 -58 21 0 24 5 27 38 2 24 8 37 15 34
7 -2 11 -14 9 -26 -3 -27 21 -24 26 3 7 35 -51 66 -64 33z"/>
<path d="M597 514 c-4 -4 -2 -13 4 -20 7 -9 1 -19 -24 -38 -35 -27 -67 -34
-67 -15 0 5 -5 7 -10 4 -20 -12 11 -37 38 -30 26 6 92 53 92 64 0 14 -26 42
-33 35z"/>
<path d="M1689 498 c-5 -34 -1 -63 10 -63 7 0 18 -8 25 -17 15 -20 51 -24 62
-6 5 7 0 9 -14 6 -24 -7 -61 25 -43 37 17 10 13 28 -4 21 -8 -3 -19 2 -24 12
-6 9 -11 14 -12 10z"/>
<path d="M812 338 c-29 -29 -1 -98 40 -98 18 0 54 37 45 47 -4 3 -7 0 -7 -7 0
-11 -4 -11 -16 2 -11 10 -14 23 -10 35 7 17 8 17 22 -1 12 -17 14 -17 14 -3 0
31 -64 49 -88 25z m41 -18 c-3 -11 -14 -20 -24 -20 -22 0 -24 11 -7 28 19 19
37 14 31 -8z m-19 -45 c-4 -8 -10 -12 -15 -9 -14 8 -10 24 6 24 9 0 12 -6 9
-15z m31 -4 c3 -5 1 -12 -5 -16 -5 -3 -10 1 -10 9 0 18 6 21 15 7z"/>
<path d="M1432 336 c-14 -7 -20 -16 -16 -26 3 -8 8 -27 11 -42 9 -47 29 -33
25 17 -5 54 10 59 38 13 16 -27 20 -29 20 -13 0 25 -27 65 -43 64 -7 -1 -22
-6 -35 -13z"/>
<path d="M1121 233 c0 -42 3 -52 9 -38 12 28 12 83 0 90 -6 4 -10 -16 -9 -52z"/>
</g>
</svg>
